<svg version="1" xmlns="http://www.w3.org/2000/svg" width="933.333" height="933.333" viewBox="0 0 700.000000 700.000000"><path d="M0 350v350h700V0H0v350zm437.5-230.1c3.8 1.7 9.7 6.9 24.2 21.3l19.2 19.1-9.6 10c-6.9 7.2-10.4 11.8-12.7 16.6-2.9 6.1-3.1 7.4-3.1 17.1 0 9.7.2 11 3.2 17.2 1.9 4 5.3 8.9 8.3 11.8 2.9 3 7.8 6.4 11.8 8.3 6.2 3 7.5 3.2 17.2 3.2s11-.2 17.1-3.1c4.8-2.3 9.4-5.8 16.6-12.7l10-9.6 19.5 19.7c22.6 22.9 23.3 24 23.3 38.7 0 16.5 12.3 3-144.9 160.1C280.5 594.8 294 582.5 277.5 582.5c-14.7 0-15.8-.7-38.7-23.3l-19.7-19.5 9.6-10c6.9-7.2 10.4-11.8 12.7-16.6 2.9-6.1 3.1-7.4 3.1-17.1 0-9.7-.2-11-3.2-17.2-4.1-8.8-11.3-16-20.1-20.1-6.2-3-7.5-3.2-17.2-3.2s-11 .2-17.1 3.1c-4.8 2.3-9.4 5.8-16.6 12.7l-10 9.6-19.5-19.7c-22.6-22.9-23.3-24-23.3-38.7 0-16.5-11.9-3.4 141.9-157.3 74.8-75 138.4-138.1 141.3-140.3 8.1-6.3 13.3-8 23.3-7.6 6.1.2 9.9 1 13.5 2.6z"/><path d="M291.5 292l-87 87 58.3 58.2 58.2 58.3 87.2-87.2 87.3-87.3-58-58c-31.9-31.9-58.2-58-58.5-58-.3 0-39.7 39.2-87.5 87zm117 0l29 29-58.3 58.3-58.2 58.2-29.2-29.3-29.3-29.2 58-58c31.9-31.9 58.2-58 58.5-58 .3 0 13.6 13.1 29.5 29z"/></svg>