<svg version="1" xmlns="http://www.w3.org/2000/svg" width="933.333" height="933.333" viewBox="0 0 700.000000 700.000000"><path d="M0 350v350h700V0H0v350zm437.5-230.1c3.8 1.7 9.7 6.9 24.2 21.3l19.2 19.2-9.5 9.8c-7 7.2-10.3 11.6-12.7 16.6-3 6.3-3.2 7.4-3.2 17.7 0 10.1.2 11.5 2.9 17 3.8 7.6 12.4 16.2 20.1 20 5.5 2.7 6.9 3 17 3 10.3 0 11.4-.2 17.7-3.2 5-2.4 9.4-5.7 16.6-12.7l9.8-9.6 19.6 19.8c22.6 22.9 23.3 24 23.3 38.7 0 7.5-.4 9.9-2.5 14.3-2.1 4.5-24.1 27-142.3 145.2C317.9 556.9 297 577.3 292.2 579.7c-5 2.4-6.9 2.8-14.7 2.8-14.7 0-15.8-.7-38.7-23.3L219 539.6l9.6-9.8c7-7.2 10.3-11.6 12.7-16.6 3-6.3 3.2-7.4 3.2-17.7 0-10.1-.2-11.5-2.9-17-3.8-7.7-12.4-16.3-20.1-20.1-5.5-2.7-6.9-2.9-17-2.9-10.3 0-11.4.2-17.7 3.2-5 2.4-9.4 5.7-16.6 12.7l-9.8 9.6-19.6-19.8c-22.6-22.9-23.3-24-23.3-38.7 0-16.7-12-3.4 140.3-155.8 74.1-74.2 137.3-137.1 140.5-139.9 8.6-7.5 15.2-10 25.7-9.5 6 .2 9.9 1 13.5 2.6z"/><path d="M291.5 292l-87 87 58.3 58.2 58.2 58.3 87-87c47.8-47.8 87-87.4 87-87.9 0-1.1-114.6-115.6-115.7-115.6-.4 0-40 39.2-87.8 87zm117 0l29 29-58.3 58.3-58.2 58.2-29.2-29.3-29.3-29.2 58-58c31.9-31.9 58.2-58 58.5-58 .3 0 13.6 13.1 29.5 29z"/></svg>