<svg version="1.1" xmlns="http://www.w3.org/2000/svg" width="512" height="512" viewBox="0 0 512 512">
  <rect height="100%" width="100%" fill="#ff4136" />
  <path fill="#ffffff" d="M277.332 192l42.666 42.666-85.332 85.332-42.666-42.666zM419.175 184.501l-24.505-24.506-10.67 10.669c-5.459 5.46-13.003 8.837-21.334 8.837-16.663 0-30.171-13.507-30.171-30.17 0-8.334 3.38-15.88 8.844-21.34l10.663-10.662-24.506-24.505c-9.99-9.989-26.336-9.989-36.325 0l-198.346 198.346c-9.989 9.99-9.989 26.337 0 36.325l24.507 24.506 10.654-10.654c5.461-5.469 13.010-8.851 21.348-8.851 16.662 0 30.17 13.508 30.17 30.17 0 8.336-3.38 15.88-8.845 21.341l-10.661 10.662 24.506 24.506c9.988 9.988 26.336 9.988 36.326 0l198.346-198.346c9.988-9.992 9.988-26.339 0-36.328zM234.667 362.666l-85.333-85.334 128-128 85.334 85.334-128 128z" />
</svg>
